<svg width="40" height="40" viewBox="0 0 40 40" fill="none" xmlns="http://www.w3.org/2000/svg">
<g clip-path="url(#clip0_1_40025)">
<path d="M40 20C40 8.9543 31.0457 0 20 0C8.9543 0 0 8.9543 0 20C0 31.0457 8.9543 40 20 40C31.0457 40 40 31.0457 40 20Z" fill="#6C00F6"/>
<path d="M24.3116 11.0647L18.7302 14.2702V24.2748L15.6507 26.0599L12.5522 24.2733V20.7014L15.6507 18.9322L17.6429 20.0876V17.1977L15.6332 16.0568L10.0533 19.2986V25.711L15.6521 28.9353L21.232 25.711V15.7079L24.3304 13.9212L27.4273 15.7079V19.2638L24.3304 21.0663L22.3208 19.9008V22.7762L24.3116 23.9243L29.9466 20.7189V14.2702L24.3116 11.0647Z" fill="white"/>
</g>
<defs>
<clipPath id="clip0_1_40025">
<rect width="40" height="40" fill="white"/>
</clipPath>
</defs>
</svg>
